<?xml version="1.0" encoding="utf-8"?>
<svg viewBox="-1.797 -0.156 50.392 7.652" width="50.392px" height="7.652px" xmlns="http://www.w3.org/2000/svg">
  <g id="svgGroup" stroke-linecap="round" fill-rule="evenodd" font-size="9pt" stroke="#000000" stroke-width="0.10mm" fill="#000000" style="stroke:#000000;stroke-width:0.10mm;fill:#000000" transform="matrix(1, 0, 0, 1, 0, 8.881784197001252e-16)">
    <path d="M 2.03 7.3 L 1.35 7.3 L 0 2.3 L 0.37 2.3 L 1.64 6.98 L 1.75 6.98 L 3.23 2.4 L 3.61 2.4 L 5.09 6.98 L 5.2 6.98 L 6.47 2.3 L 6.84 2.3 L 5.49 7.3 L 4.81 7.3 L 3.42 2.82 L 2.03 7.3 Z M 33.22 7.3 L 32.87 7.3 L 32.87 0 L 33.22 0 L 33.22 2.6 A 2.607 2.607 0 0 1 33.377 2.532 Q 33.519 2.476 33.7 2.42 A 5.072 5.072 0 0 1 34.148 2.304 A 5.893 5.893 0 0 1 34.32 2.27 A 3.662 3.662 0 0 1 34.833 2.212 A 3.269 3.269 0 0 1 34.96 2.21 A 3.562 3.562 0 0 1 35.288 2.224 Q 35.45 2.239 35.587 2.27 A 1.558 1.558 0 0 1 35.79 2.33 Q 36.11 2.45 36.29 2.73 A 1.335 1.335 0 0 1 36.417 2.991 Q 36.496 3.205 36.535 3.49 A 6.182 6.182 0 0 1 36.573 3.867 Q 36.6 4.232 36.6 4.7 L 36.6 7.3 L 36.25 7.3 L 36.25 4.72 Q 36.25 3.87 36.16 3.395 A 1.593 1.593 0 0 0 36.088 3.132 Q 36.036 2.992 35.959 2.888 A 0.722 0.722 0 0 0 35.795 2.725 Q 35.531 2.538 35.005 2.53 A 3.117 3.117 0 0 0 34.96 2.53 Q 34.63 2.53 34.3 2.595 Q 33.97 2.66 33.69 2.75 Q 33.476 2.819 33.314 2.888 A 2.621 2.621 0 0 0 33.22 2.93 L 33.22 7.3 Z M 21.42 4.49 L 23.32 4.29 L 23.32 3.77 A 2.38 2.38 0 0 0 23.298 3.438 Q 23.244 3.055 23.054 2.85 A 0.706 0.706 0 0 0 23.04 2.835 Q 22.799 2.59 22.359 2.556 A 1.915 1.915 0 0 0 22.21 2.55 A 5.441 5.441 0 0 0 22.002 2.554 Q 21.888 2.559 21.759 2.568 A 10.118 10.118 0 0 0 21.6 2.58 Q 21.25 2.61 20.91 2.645 Q 20.57 2.68 20.32 2.72 L 20.29 2.39 Q 20.53 2.35 20.87 2.31 Q 21.21 2.27 21.565 2.24 Q 21.92 2.21 22.21 2.21 A 2.452 2.452 0 0 1 22.538 2.231 Q 22.711 2.254 22.856 2.304 A 1.204 1.204 0 0 1 23.04 2.385 Q 23.36 2.56 23.515 2.905 A 1.615 1.615 0 0 1 23.621 3.24 Q 23.655 3.403 23.665 3.593 A 3.192 3.192 0 0 1 23.67 3.77 L 23.67 6.65 A 0.332 0.332 0 0 0 23.823 6.909 A 0.515 0.515 0 0 0 23.925 6.96 Q 24.16 7.05 24.42 7.07 L 24.4 7.38 Q 24.29 7.38 24.175 7.37 A 1.459 1.459 0 0 1 24.027 7.35 A 1.232 1.232 0 0 1 23.96 7.335 Q 23.86 7.31 23.77 7.27 Q 23.65 7.22 23.55 7.14 Q 23.45 7.06 23.37 6.96 A 4.23 4.23 0 0 1 23.189 7.029 Q 23.024 7.087 22.815 7.15 A 6.554 6.554 0 0 1 22.299 7.281 A 7.619 7.619 0 0 1 22.1 7.32 Q 21.72 7.39 21.35 7.39 A 1.643 1.643 0 0 1 20.945 7.343 A 1.141 1.141 0 0 1 20.39 7.025 Q 20.109 6.732 20.053 6.203 A 2.628 2.628 0 0 1 20.04 5.93 A 2.201 2.201 0 0 1 20.063 5.602 Q 20.089 5.427 20.146 5.28 A 1.25 1.25 0 0 1 20.18 5.2 A 1.073 1.073 0 0 1 20.587 4.743 A 1.311 1.311 0 0 1 20.625 4.72 A 1.474 1.474 0 0 1 20.926 4.588 Q 21.074 4.541 21.249 4.512 A 2.981 2.981 0 0 1 21.42 4.49 Z M 42.11 7.3 L 41.13 7.3 L 39.58 2.3 L 39.99 2.3 L 41.4 6.98 L 41.84 6.98 L 43.29 2.3 L 43.66 2.3 L 42.11 7.3 Z M 11.7 4.61 L 11.7 4.94 L 8.15 4.94 Q 8.15 5.967 8.473 6.517 A 1.543 1.543 0 0 0 8.475 6.52 A 1.046 1.046 0 0 0 9.084 6.989 Q 9.274 7.05 9.508 7.065 A 2.516 2.516 0 0 0 9.67 7.07 A 10.823 10.823 0 0 0 9.929 7.067 Q 10.085 7.063 10.26 7.055 Q 10.59 7.04 10.92 7.02 Q 11.25 7 11.49 6.98 L 11.51 7.3 Q 11.27 7.32 10.94 7.34 Q 10.61 7.36 10.27 7.375 Q 9.93 7.39 9.66 7.39 Q 9.158 7.383 8.809 7.241 A 1.348 1.348 0 0 1 8.51 7.075 A 1.466 1.466 0 0 1 8.057 6.511 A 2.004 2.004 0 0 1 7.94 6.19 A 4.095 4.095 0 0 1 7.831 5.638 Q 7.793 5.357 7.784 5.037 A 7.692 7.692 0 0 1 7.78 4.8 Q 7.78 4.161 7.893 3.699 A 2.332 2.332 0 0 1 8.05 3.245 A 2.083 2.083 0 0 1 8.295 2.847 A 1.475 1.475 0 0 1 8.775 2.445 A 2.119 2.119 0 0 1 9.556 2.221 A 2.595 2.595 0 0 1 9.8 2.21 A 2.457 2.457 0 0 1 10.37 2.272 Q 10.885 2.395 11.21 2.76 A 1.582 1.582 0 0 1 11.499 3.252 Q 11.673 3.705 11.696 4.388 A 6.391 6.391 0 0 1 11.7 4.61 Z M 48.47 4.61 L 48.47 4.94 L 44.92 4.94 Q 44.92 5.967 45.243 6.517 A 1.543 1.543 0 0 0 45.245 6.52 A 1.046 1.046 0 0 0 45.854 6.989 Q 46.044 7.05 46.278 7.065 A 2.516 2.516 0 0 0 46.44 7.07 A 10.823 10.823 0 0 0 46.699 7.067 Q 46.855 7.063 47.03 7.055 Q 47.36 7.04 47.69 7.02 Q 48.02 7 48.26 6.98 L 48.28 7.3 Q 48.04 7.32 47.71 7.34 Q 47.38 7.36 47.04 7.375 Q 46.7 7.39 46.43 7.39 Q 45.928 7.383 45.579 7.241 A 1.348 1.348 0 0 1 45.28 7.075 A 1.466 1.466 0 0 1 44.827 6.511 A 2.004 2.004 0 0 1 44.71 6.19 A 4.095 4.095 0 0 1 44.601 5.638 Q 44.563 5.357 44.554 5.037 A 7.692 7.692 0 0 1 44.55 4.8 Q 44.55 4.161 44.663 3.699 A 2.332 2.332 0 0 1 44.82 3.245 A 2.083 2.083 0 0 1 45.065 2.847 A 1.475 1.475 0 0 1 45.545 2.445 A 2.119 2.119 0 0 1 46.326 2.221 A 2.595 2.595 0 0 1 46.57 2.21 A 2.457 2.457 0 0 1 47.14 2.272 Q 47.655 2.395 47.98 2.76 A 1.582 1.582 0 0 1 48.269 3.252 Q 48.443 3.705 48.466 4.388 A 6.391 6.391 0 0 1 48.47 4.61 Z M 13 7.3 L 13 0 L 13.35 0 L 13.35 2.61 Q 13.484 2.543 13.674 2.476 A 4.984 4.984 0 0 1 13.81 2.43 A 5.152 5.152 0 0 1 14.178 2.327 A 6.164 6.164 0 0 1 14.415 2.275 Q 14.74 2.21 15.07 2.21 Q 15.516 2.21 15.829 2.326 A 1.2 1.2 0 0 1 16.12 2.48 A 1.225 1.225 0 0 1 16.486 2.915 Q 16.57 3.077 16.623 3.278 A 2.206 2.206 0 0 1 16.63 3.305 A 3.997 3.997 0 0 1 16.715 3.759 Q 16.746 3.995 16.759 4.27 A 9.097 9.097 0 0 1 16.77 4.72 A 7.919 7.919 0 0 1 16.749 5.319 Q 16.727 5.611 16.681 5.859 A 3.413 3.413 0 0 1 16.59 6.24 A 1.598 1.598 0 0 1 16.357 6.718 A 1.378 1.378 0 0 1 15.915 7.11 A 1.812 1.812 0 0 1 15.503 7.275 Q 15.086 7.39 14.49 7.39 A 9.308 9.308 0 0 1 14.166 7.384 A 11.049 11.049 0 0 1 13.96 7.375 Q 13.68 7.36 13.43 7.34 Q 13.18 7.32 13 7.3 Z M 31.64 2.31 L 31.62 2.63 Q 31.474 2.613 31.291 2.592 A 141.197 141.197 0 0 0 31.23 2.585 Q 31.01 2.56 30.795 2.545 A 8.325 8.325 0 0 0 30.692 2.538 Q 30.555 2.531 30.454 2.53 A 2.72 2.72 0 0 0 30.44 2.53 Q 30.02 2.53 29.718 2.62 A 1.336 1.336 0 0 0 29.435 2.74 A 1.075 1.075 0 0 0 29.026 3.166 A 1.513 1.513 0 0 0 28.915 3.425 A 2.635 2.635 0 0 0 28.827 3.789 Q 28.793 3.98 28.777 4.205 A 6.58 6.58 0 0 0 28.76 4.69 Q 28.76 5.55 28.885 6.075 A 1.591 1.591 0 0 0 29.002 6.408 Q 29.116 6.64 29.299 6.784 A 0.985 0.985 0 0 0 29.37 6.835 A 1.207 1.207 0 0 0 29.674 6.974 Q 29.985 7.07 30.44 7.07 A 3.399 3.399 0 0 0 30.545 7.068 Q 30.6 7.067 30.662 7.063 A 7.968 7.968 0 0 0 30.795 7.055 A 25.819 25.819 0 0 0 31.183 7.025 A 28.656 28.656 0 0 0 31.24 7.02 Q 31.47 7 31.64 6.98 L 31.66 7.3 Q 31.492 7.319 31.28 7.337 A 24.05 24.05 0 0 1 31.25 7.34 Q 31.02 7.36 30.8 7.375 A 8.865 8.865 0 0 1 30.695 7.382 Q 30.566 7.389 30.47 7.39 A 2.857 2.857 0 0 1 30.44 7.39 Q 29.62 7.39 29.175 7.141 A 1.286 1.286 0 0 1 29.165 7.135 A 1.218 1.218 0 0 1 28.682 6.616 A 1.769 1.769 0 0 1 28.555 6.285 Q 28.39 5.69 28.39 4.69 A 7.066 7.066 0 0 1 28.41 4.147 Q 28.453 3.591 28.59 3.22 A 1.579 1.579 0 0 1 28.809 2.812 A 1.273 1.273 0 0 1 29.245 2.445 A 1.876 1.876 0 0 1 29.662 2.293 Q 30.001 2.21 30.44 2.21 A 3.399 3.399 0 0 1 30.545 2.212 Q 30.6 2.213 30.662 2.217 A 7.968 7.968 0 0 1 30.795 2.225 Q 31.01 2.24 31.24 2.265 Q 31.398 2.282 31.528 2.297 A 33.64 33.64 0 0 1 31.64 2.31 Z M 25.65 7.3 L 25.3 7.3 L 25.3 2.3 L 25.65 2.3 L 25.65 3.08 A 2.737 2.737 0 0 1 25.809 2.964 Q 25.956 2.864 26.15 2.755 A 5.362 5.362 0 0 1 26.545 2.554 A 6.749 6.749 0 0 1 26.845 2.425 Q 27.23 2.27 27.63 2.2 L 27.63 2.56 Q 27.27 2.63 26.895 2.78 Q 26.52 2.93 26.195 3.1 A 10.286 10.286 0 0 0 25.966 3.223 Q 25.854 3.285 25.759 3.343 A 5.025 5.025 0 0 0 25.65 3.41 L 25.65 7.3 Z M 13.35 2.93 L 13.35 7.01 Q 13.61 7.03 13.95 7.05 Q 14.23 7.066 14.409 7.069 A 4.41 4.41 0 0 0 14.48 7.07 Q 15.23 7.07 15.638 6.87 A 1.144 1.144 0 0 0 15.73 6.82 A 1.154 1.154 0 0 0 16.217 6.218 A 1.579 1.579 0 0 0 16.27 6.045 A 3.87 3.87 0 0 0 16.349 5.613 Q 16.378 5.392 16.39 5.137 A 8.526 8.526 0 0 0 16.4 4.72 A 9.042 9.042 0 0 0 16.387 4.221 Q 16.364 3.806 16.3 3.495 A 1.729 1.729 0 0 0 16.209 3.191 Q 16.139 3.018 16.034 2.891 A 0.933 0.933 0 0 0 15.915 2.77 A 0.907 0.907 0 0 0 15.616 2.607 Q 15.484 2.562 15.322 2.544 A 2.189 2.189 0 0 0 15.07 2.53 Q 14.74 2.53 14.415 2.595 A 5.894 5.894 0 0 0 14.026 2.686 A 4.926 4.926 0 0 0 13.81 2.75 A 4.689 4.689 0 0 0 13.615 2.817 Q 13.463 2.874 13.35 2.93 Z M 38.48 7.3 L 38.13 7.3 L 38.13 2.3 L 38.48 2.3 L 38.48 7.3 Z M 23.32 6.66 L 23.32 4.61 L 21.46 4.8 Q 20.888 4.859 20.652 5.127 A 0.655 0.655 0 0 0 20.645 5.135 Q 20.41 5.41 20.41 5.93 Q 20.41 6.48 20.655 6.775 Q 20.9 7.07 21.36 7.07 A 4.051 4.051 0 0 0 22.029 7.013 A 4.448 4.448 0 0 0 22.075 7.005 A 7.009 7.009 0 0 0 22.645 6.88 A 6.253 6.253 0 0 0 22.77 6.845 A 7.677 7.677 0 0 0 23.002 6.774 Q 23.183 6.716 23.32 6.66 Z M 8.15 4.62 L 11.33 4.62 A 5.613 5.613 0 0 0 11.307 4.088 Q 11.253 3.533 11.08 3.196 A 1.173 1.173 0 0 0 10.955 3 A 1.188 1.188 0 0 0 10.328 2.596 Q 10.093 2.53 9.8 2.53 A 2.056 2.056 0 0 0 9.36 2.575 A 1.577 1.577 0 0 0 8.93 2.735 A 1.242 1.242 0 0 0 8.507 3.126 A 1.709 1.709 0 0 0 8.355 3.4 A 2.051 2.051 0 0 0 8.23 3.787 Q 8.185 3.988 8.165 4.227 A 4.78 4.78 0 0 0 8.15 4.62 Z M 44.92 4.62 L 48.1 4.62 A 5.613 5.613 0 0 0 48.077 4.088 Q 48.023 3.533 47.85 3.196 A 1.173 1.173 0 0 0 47.725 3 A 1.188 1.188 0 0 0 47.098 2.596 Q 46.863 2.53 46.57 2.53 A 2.056 2.056 0 0 0 46.13 2.575 A 1.577 1.577 0 0 0 45.7 2.735 A 1.242 1.242 0 0 0 45.277 3.126 A 1.709 1.709 0 0 0 45.125 3.4 A 2.051 2.051 0 0 0 45 3.787 Q 44.955 3.988 44.935 4.227 A 4.78 4.78 0 0 0 44.92 4.62 Z M 38.48 0.85 L 38.13 0.85 L 38.13 0.3 L 38.48 0.3 L 38.48 0.85 Z" vector-effect="non-scaling-stroke"/>
  </g>
</svg>