<svg width="50" height="48.65" xmlns="http://www.w3.org/2000/svg">
 <title>perl</title>

 <g>
  <title>Layer 1</title>
  <path stroke="null" id="svg_4" d="m-2.76692,48.60079l27.74872,-48.56026l27.74872,48.56026l-55.49745,0z" fill="#b2b2b2"/>
  <path stroke="null" id="svg_5" fill="#ffffff" d="m34.51596,27.57967a61.07996,61.07996 0 0 1 0.75268,6.59023a6.49396,6.49396 0 0 1 -1.14651,3.85961c-0.18379,0.6564 -0.73517,0 -1.12901,0c-0.97147,0 -1.3303,-1.05023 -1.85542,-1.69787s-0.14878,-1.23402 0.2013,-1.75039c0.37633,-0.27132 0.52512,-0.8752 1.06773,-0.8752s0.47261,-0.74392 0.39384,-1.13776c0.35883,-0.55136 0.14003,-1.3653 0.49011,-1.96919c0.63014,-0.28006 0.44635,-1.26028 0.66515,-1.81165c0.17504,-0.39384 0,-1.14651 0.49887,-1.3128c0,0 0.06126,0 0.05251,0.08753m-0.60388,-22.47505c-0.82268,-0.09627 -1.44408,0.46386 -2.13548,0.77893a15.75353,15.75353 0 0 1 -1.75039,0.47261c-0.42884,0.8752 -1.41782,1.39157 -1.95168,2.21425a8.75197,8.75197 0 0 1 -2.92316,4.13092c-1.94293,1.00647 -2.92316,3.19447 -3.56205,5.25117c-0.2188,0.46386 -0.18379,1.14651 -0.42009,1.54035c-0.77018,0.2188 -0.35883,-0.78767 -0.44635,-1.26903c-0.11377,-0.71767 0.51636,-1.18152 0.56012,-1.88168a2.8794,2.8794 0 0 0 0.31507,-1.61912c-0.08752,-1.25152 0.28882,-2.77437 -0.59513,-3.79835c-0.52512,-0.30632 -0.35883,-0.95397 -0.55138,-1.45282a6.36267,6.36267 0 0 0 -1.95168,-1.75039c-0.63014,-0.06127 -1.20778,-0.8752 -1.85542,-0.49887c-0.40259,0.47261 -1.14651,0.46386 -1.38282,1.094c-0.14878,0.78767 -1.03272,0.57762 -1.61036,0.77018c-0.73517,0.28881 -1.68037,0 -2.28426,0.58637s-1.59286,1.44408 -1.29529,2.43305c0.6914,1.35655 2.4768,0.6739 3.44828,1.49658a28.00628,28.00628 0 0 1 -1.05899,2.6781a15.80605,15.80605 0 0 0 -0.07002,3.57956c0.18379,1.19027 -0.12252,2.72186 0.8752,3.56205c0.56887,0.21004 0.53387,0.87519 0.75267,1.3653s0.63889,-0.17503 0.81393,0.29757c0.50762,0.28007 0.05251,0.8752 0.33258,1.22527a2.41554,2.41554 0 0 1 1.23402,0.6564a10.34483,10.34483 0 0 1 1.49658,1.26903c0.35008,0.71767 0.79643,-0.70016 1.18152,-0.16628a0.8752,0.8752 0 0 0 1.23402,0.4376a4.4635,4.4635 0 0 0 1.96044,-0.84894c0.37633,1.33905 0.08753,2.79187 0.25381,4.17468a18.28285,18.28285 0 0 1 0.4376,3.07194a14.75581,14.75581 0 0 1 0.4551,3.1157a11.11499,11.11499 0 0 1 -1.06774,6.38018a1.54034,1.54034 0 0 1 -1.21652,1.22527c-0.4376,0.20129 -1.34781,0.56012 -1.04148,1.19027c1.01522,0.87519 2.62558,0.77893 3.7896,0.33258c0.77017,-0.37634 0.10502,-1.3128 0.49886,-1.88168c0.51637,-1.99545 0.26256,-4.13092 0.8752,-6.12637a5.88132,5.88132 0 0 0 0.51637,-3.22947c0.12252,-0.6739 -0.15754,-1.48783 0.28006,-2.03921a2.80938,2.80938 0 0 1 0.70891,-1.83791a23.14019,23.14019 0 0 0 0.2188,-3.10695a4.76982,4.76982 0 0 1 1.90792,-0.19254c0,0.57762 -0.41134,1.24277 -0.28881,1.89043a3.04568,3.04568 0 0 1 -0.39384,2.10922c-0.27131,1.13776 -0.4551,2.53808 0.25381,3.50079c1.17276,1.28653 2.70436,2.19674 3.81586,3.5708a0.80518,0.80518 0 0 1 0.05251,1.20777a2.32803,2.32803 0 0 1 -1.48783,1.58411c-0.46385,0.18379 -1.20778,0.8752 -0.66515,1.35656a5.78505,5.78505 0 0 0 3.28198,-0.2188c0.71767,-0.26256 0.45511,-1.12901 0.73517,-1.67162a17.27637,17.27637 0 0 1 1.06774,1.63662c0.44635,0.66515 1.21653,0.11377 1.75039,-0.09628a5.51373,5.51373 0 0 0 -0.56887,-2.81813c-0.24506,-0.57762 -1.19902,-0.59513 -1.15526,-1.30404c0.4726,-1.75039 1.64537,-3.1157 2.57307,-4.59478c0.77018,-0.73516 0.19254,-1.82916 0.2363,-2.75687a10.50236,10.50236 0 0 1 1.63662,-6.79153a24.63677,24.63677 0 0 0 1.04149,3.28199a9.62716,9.62716 0 0 0 1.62786,3.46577c0.35883,1.24277 0.26256,2.62559 0.49887,3.91212a16.33117,16.33117 0 0 1 -0.36758,6.669c0.06127,0.79642 -0.69141,1.38281 -0.62139,2.16173c0.21005,0.71766 1.05023,0.14003 1.48783,0.44635a1.66288,1.66288 0 0 0 1.99545,-0.87519a9.81095,9.81095 0 0 1 -0.36758,-1.86418a11.64887,11.64887 0 0 1 -0.38508,-5.70627c0.07002,-1.03273 0.6914,-2.29302 -0.11377,-3.17697c-0.2188,-0.94521 0.15753,-1.96919 -0.07002,-2.94066a20.12952,20.12952 0 0 1 -0.18379,-7.57045c0.14003,-0.35007 0,-0.99773 0.37633,-1.19027a2.8794,2.8794 0 0 1 0.47261,1.89043a5.78505,5.78505 0 0 1 0.12252,3.19447c-0.63889,0.81393 -0.24506,1.91668 -0.16629,2.83563c0.10503,0.64765 0.77893,0.18379 0.8752,-0.2188a18.31786,18.31786 0 0 0 1.41782,-3.43952c0.40259,-0.54263 0,-1.18152 0,-1.75039c0.62139,-0.07877 0.38509,-0.77893 0.05252,-1.08525c-0.33258,-1.12025 -0.25381,-2.41554 -1.00647,-3.3695a16.13863,16.13863 0 0 1 -2.92316,-4.18344c-0.79643,-2.51182 -3.07194,-4.18344 -3.84212,-6.72151a5.45248,5.45248 0 0 0 -2.44179,-3.56205a11.5876,11.5876 0 0 0 -1.7504,-0.63889a9.52213,9.52213 0 0 1 -1.54909,0.19254"/>
  <path stroke="null" id="svg_1" fill="#004065" d="m34.35522,27.47336a59.33795,59.33795 0 0 1 0.7312,6.40227a6.30875,6.30875 0 0 1 -1.11381,3.74954c-0.17855,0.63768 -0.7142,0 -1.0968,0c-0.94376,0 -1.29236,-1.02028 -1.8025,-1.64946s-0.14454,-1.19883 0.19555,-1.70047c0.3656,-0.26357 0.51014,-0.85024 1.03729,-0.85024s0.45913,-0.7227 0.38261,-1.10531c0.3486,-0.53565 0.13604,-1.32637 0.47613,-1.91303c0.61217,-0.27208 0.43362,-1.22434 0.64618,-1.75999c0.17005,-0.38261 0,-1.11381 0.48463,-1.27535c0,0 0.05952,0 0.05101,0.08502m-0.58666,-21.83405c-0.79922,-0.09353 -1.40289,0.45062 -2.07458,0.75671a15.30424,15.30424 0 0 1 -1.70047,0.45913c-0.41662,0.85024 -1.37738,1.35187 -1.89603,2.1511a8.50236,8.50236 0 0 1 -2.83979,4.01311c-1.88752,0.97777 -2.83979,3.10336 -3.46046,5.10141c-0.21256,0.45062 -0.17855,1.11381 -0.40811,1.49641c-0.74821,0.21256 -0.3486,-0.76521 -0.43362,-1.23284c-0.11053,-0.69719 0.50164,-1.14782 0.54415,-1.82801a2.79728,2.79728 0 0 0 0.30608,-1.57294c-0.08502,-1.21584 0.28058,-2.69525 -0.57816,-3.69002c-0.51014,-0.29758 -0.3486,-0.92676 -0.53565,-1.41139a6.18121,6.18121 0 0 0 -1.89603,-1.70047c-0.61217,-0.05952 -1.17333,-0.85024 -1.8025,-0.48463c-0.39111,0.45913 -1.11381,0.45062 -1.34337,1.06279c-0.14454,0.76521 -1.00328,0.56116 -1.56443,0.74821c-0.7142,0.28058 -1.63245,0 -2.21912,0.56966s-1.54743,1.40289 -1.25835,2.36366c0.67169,1.31787 2.40617,0.65468 3.34993,1.4539a27.20754,27.20754 0 0 1 -1.02879,2.60172a15.35526,15.35526 0 0 0 -0.06802,3.47746c0.17855,1.15632 -0.11903,2.64423 0.85024,3.46046c0.55265,0.20406 0.51864,0.85024 0.7312,1.32637s0.62067,-0.17005 0.79072,0.28908c0.49314,0.27208 0.05101,0.85024 0.32309,1.19033a2.34665,2.34665 0 0 1 1.19883,0.63768a10.04979,10.04979 0 0 1 1.4539,1.23284c0.34009,0.69719 0.77371,-0.68019 1.14782,-0.16154a0.85024,0.85024 0 0 0 1.19883,0.42512a4.3362,4.3362 0 0 0 1.90453,-0.82473c0.3656,1.30086 0.08502,2.71225 0.24657,4.05562a17.76142,17.76142 0 0 1 0.42512,2.98433a14.33497,14.33497 0 0 1 0.44212,3.02684a10.79799,10.79799 0 0 1 -1.03729,6.19822a1.49641,1.49641 0 0 1 -1.18183,1.19033c-0.42512,0.19555 -1.30936,0.54415 -1.01178,1.15632c0.98627,0.85024 2.55071,0.75671 3.68152,0.32309c0.74821,-0.3656 0.10203,-1.27535 0.48463,-1.82801c0.50164,-1.93854 0.25507,-4.01311 0.85024,-5.95165a5.71358,5.71358 0 0 0 0.50164,-3.13737c0.11903,-0.65468 -0.15304,-1.4454 0.27208,-1.98105a2.72926,2.72926 0 0 1 0.68869,-1.78549a22.48023,22.48023 0 0 0 0.21256,-3.01834a4.63378,4.63378 0 0 1 1.85351,-0.18705c0,0.56116 -0.39961,1.20733 -0.28058,1.83651a2.95882,2.95882 0 0 1 -0.38261,2.04907c-0.26357,1.10531 -0.44212,2.46568 0.24657,3.40094c1.13932,1.24985 2.62723,2.13409 3.70703,3.46896a0.78222,0.78222 0 0 1 0.05101,1.17333a2.26163,2.26163 0 0 1 -1.4454,1.53893c-0.45062,0.17855 -1.17333,0.85024 -0.64618,1.31787a5.62006,5.62006 0 0 0 3.18838,-0.21256c0.69719,-0.25507 0.44212,-1.0968 0.7142,-1.62395a16.78365,16.78365 0 0 1 1.03729,1.58994c0.43362,0.64618 1.18183,0.11053 1.70047,-0.09353a5.35648,5.35648 0 0 0 -0.55265,-2.73776c-0.23807,-0.56116 -1.16482,-0.57816 -1.12231,-1.26685c0.45913,-1.70047 1.59844,-3.02684 2.49969,-4.46374c0.74821,-0.7142 0.18705,-1.77699 0.22956,-2.67824a10.20283,10.20283 0 0 1 1.58994,-6.59783a23.93413,23.93413 0 0 0 1.01178,3.18838a9.35259,9.35259 0 0 0 1.58144,3.36693c0.3486,1.20733 0.25507,2.55071 0.48463,3.80055a15.8654,15.8654 0 0 1 -0.3571,6.4788c0.05952,0.77371 -0.67169,1.34337 -0.60367,2.10008c0.20406,0.69719 1.02028,0.13604 1.4454,0.43362a1.61545,1.61545 0 0 0 1.93854,-0.85024a9.53114,9.53114 0 0 1 -0.3571,-1.811a11.31664,11.31664 0 0 1 -0.3741,-5.54354c0.06802,-1.00328 0.67169,-2.22762 -0.11053,-3.08636c-0.21256,-0.91825 0.15304,-1.91303 -0.06802,-2.85679a19.55542,19.55542 0 0 1 -0.17855,-7.35454c0.13604,-0.34009 0,-0.96927 0.3656,-1.15632a2.79728,2.79728 0 0 1 0.45913,1.83651a5.62006,5.62006 0 0 1 0.11903,3.10336c-0.62067,0.79072 -0.23807,1.86202 -0.16154,2.75476c0.10203,0.62917 0.75671,0.17855 0.85024,-0.21256a17.79543,17.79543 0 0 0 1.37738,-3.34143c0.39111,-0.52715 0,-1.14782 0,-1.70047c0.60367,-0.07652 0.3741,-0.75671 0.05101,-1.05429c-0.32309,-1.0883 -0.24657,-2.34665 -0.97777,-3.27341a15.67835,15.67835 0 0 1 -2.83979,-4.06413c-0.77371,-2.44018 -2.98433,-4.06413 -3.73253,-6.52981a5.29697,5.29697 0 0 0 -2.37216,-3.46046a11.25712,11.25712 0 0 0 -1.70047,-0.62067a9.25056,9.25056 0 0 1 -1.50492,0.18705"/>
  <path id="svg_2" d="m-16.35518,16.34515l0.745,-1.30375l0.745,1.30375l-1.49,0z" fill="#004065"/>
 </g>
</svg>